<?xml version="1.0" encoding="utf-8" standalone="no"?>
<!DOCTYPE svg PUBLIC "-//W3C//DTD SVG 1.1//EN"
  "http://www.w3.org/Graphics/SVG/1.1/DTD/svg11.dtd">
<svg xmlns:xlink="http://www.w3.org/1999/xlink" width="432pt" height="288pt" viewBox="0 0 432 288" xmlns="http://www.w3.org/2000/svg" version="1.1">
 <metadata>
  <rdf:RDF xmlns:dc="http://purl.org/dc/elements/1.1/" xmlns:cc="http://creativecommons.org/ns#" xmlns:rdf="http://www.w3.org/1999/02/22-rdf-syntax-ns#">
   <cc:Work>
    <dc:type rdf:resource="http://purl.org/dc/dcmitype/StillImage"/>
    <dc:date>2022-02-06T19:07:05.805049</dc:date>
    <dc:format>image/svg+xml</dc:format>
    <dc:creator>
     <cc:Agent>
      <dc:title>Matplotlib v3.5.0, https://matplotlib.org/</dc:title>
     </cc:Agent>
    </dc:creator>
   </cc:Work>
  </rdf:RDF>
 </metadata>
 <defs>
  <style type="text/css">*{stroke-linejoin: round; stroke-linecap: butt}</style>
 </defs>
 <g id="figure_1">
  <g id="patch_1">
   <path d="M 0 288 
L 432 288 
L 432 0 
L 0 0 
L 0 288 
z
" style="fill: none"/>
  </g>
  <g id="axes_1">
   <g id="patch_2">
    <path d="M 54 252 
L 388.8 252 
L 388.8 34.56 
L 54 34.56 
L 54 252 
z
" style="fill: none"/>
   </g>
   <g id="matplotlib.axis_1">
    <g id="xtick_1">
     <g id="line2d_1">
      <defs>
       <path id="m4bced2b0fe" d="M 0 0 
L 0 3.5 
" style="stroke: #000000; stroke-width: 0.8"/>
      </defs>
      <g>
       <use xlink:href="#m4bced2b0fe" x="69.218182" y="252" style="stroke: #000000; stroke-width: 0.8"/>
      </g>
     </g>
     <g id="text_1">
      <!-- 0 -->
      <g transform="translate(66.036932 266.598437)scale(0.1 -0.1)">
       <defs>
        <path id="DejaVuSans-30" d="M 2034 4250 
Q 1547 4250 1301 3770 
Q 1056 3291 1056 2328 
Q 1056 1369 1301 889 
Q 1547 409 2034 409 
Q 2525 409 2770 889 
Q 3016 1369 3016 2328 
Q 3016 3291 2770 3770 
Q 2525 4250 2034 4250 
z
M 2034 4750 
Q 2819 4750 3233 4129 
Q 3647 3509 3647 2328 
Q 3647 1150 3233 529 
Q 2819 -91 2034 -91 
Q 1250 -91 836 529 
Q 422 1150 422 2328 
Q 422 3509 836 4129 
Q 1250 4750 2034 4750 
z
" transform="scale(0.015625)"/>
       </defs>
       <use xlink:href="#DejaVuSans-30"/>
      </g>
     </g>
    </g>
    <g id="xtick_2">
     <g id="line2d_2">
      <g>
       <use xlink:href="#m4bced2b0fe" x="221.4" y="252" style="stroke: #000000; stroke-width: 0.8"/>
      </g>
     </g>
     <g id="text_2">
      <!-- $1 \pi$ -->
      <g transform="translate(215.2 266.598437)scale(0.1 -0.1)">
       <defs>
        <path id="DejaVuSans-31" d="M 794 531 
L 1825 531 
L 1825 4091 
L 703 3866 
L 703 4441 
L 1819 4666 
L 2450 4666 
L 2450 531 
L 3481 531 
L 3481 0 
L 794 0 
L 794 531 
z
" transform="scale(0.015625)"/>
        <path id="DejaVuSans-Oblique-3c0" d="M 584 3500 
L 3938 3500 
L 3825 2925 
L 3384 2925 
L 2966 775 
Q 2922 550 2981 450 
Q 3038 353 3209 353 
Q 3256 353 3325 363 
Q 3397 369 3419 372 
L 3338 -44 
Q 3222 -84 3103 -103 
Q 2981 -122 2866 -122 
Q 2491 -122 2388 81 
Q 2284 288 2391 838 
L 2797 2925 
L 1506 2925 
L 938 0 
L 350 0 
L 919 2925 
L 472 2925 
L 584 3500 
z
" transform="scale(0.015625)"/>
       </defs>
       <use xlink:href="#DejaVuSans-31" transform="translate(0 0.09375)"/>
       <use xlink:href="#DejaVuSans-Oblique-3c0" transform="translate(63.623047 0.09375)"/>
      </g>
     </g>
    </g>
    <g id="xtick_3">
     <g id="line2d_3">
      <g>
       <use xlink:href="#m4bced2b0fe" x="373.581818" y="252" style="stroke: #000000; stroke-width: 0.8"/>
      </g>
     </g>
     <g id="text_3">
      <!-- $2 \pi$ -->
      <g transform="translate(367.381818 266.598437)scale(0.1 -0.1)">
       <defs>
        <path id="DejaVuSans-32" d="M 1228 531 
L 3431 531 
L 3431 0 
L 469 0 
L 469 531 
Q 828 903 1448 1529 
Q 2069 2156 2228 2338 
Q 2531 2678 2651 2914 
Q 2772 3150 2772 3378 
Q 2772 3750 2511 3984 
Q 2250 4219 1831 4219 
Q 1534 4219 1204 4116 
Q 875 4013 500 3803 
L 500 4441 
Q 881 4594 1212 4672 
Q 1544 4750 1819 4750 
Q 2544 4750 2975 4387 
Q 3406 4025 3406 3419 
Q 3406 3131 3298 2873 
Q 3191 2616 2906 2266 
Q 2828 2175 2409 1742 
Q 1991 1309 1228 531 
z
" transform="scale(0.015625)"/>
       </defs>
       <use xlink:href="#DejaVuSans-32" transform="translate(0 0.78125)"/>
       <use xlink:href="#DejaVuSans-Oblique-3c0" transform="translate(63.623047 0.78125)"/>
      </g>
     </g>
    </g>
    <g id="text_4">
     <!-- Tiempo (s) -->
     <g transform="translate(194.8375 280.276563)scale(0.1 -0.1)">
      <defs>
       <path id="DejaVuSans-54" d="M -19 4666 
L 3928 4666 
L 3928 4134 
L 2272 4134 
L 2272 0 
L 1638 0 
L 1638 4134 
L -19 4134 
L -19 4666 
z
" transform="scale(0.015625)"/>
       <path id="DejaVuSans-69" d="M 603 3500 
L 1178 3500 
L 1178 0 
L 603 0 
L 603 3500 
z
M 603 4863 
L 1178 4863 
L 1178 4134 
L 603 4134 
L 603 4863 
z
" transform="scale(0.015625)"/>
       <path id="DejaVuSans-65" d="M 3597 1894 
L 3597 1613 
L 953 1613 
Q 991 1019 1311 708 
Q 1631 397 2203 397 
Q 2534 397 2845 478 
Q 3156 559 3463 722 
L 3463 178 
Q 3153 47 2828 -22 
Q 2503 -91 2169 -91 
Q 1331 -91 842 396 
Q 353 884 353 1716 
Q 353 2575 817 3079 
Q 1281 3584 2069 3584 
Q 2775 3584 3186 3129 
Q 3597 2675 3597 1894 
z
M 3022 2063 
Q 3016 2534 2758 2815 
Q 2500 3097 2075 3097 
Q 1594 3097 1305 2825 
Q 1016 2553 972 2059 
L 3022 2063 
z
" transform="scale(0.015625)"/>
       <path id="DejaVuSans-6d" d="M 3328 2828 
Q 3544 3216 3844 3400 
Q 4144 3584 4550 3584 
Q 5097 3584 5394 3201 
Q 5691 2819 5691 2113 
L 5691 0 
L 5113 0 
L 5113 2094 
Q 5113 2597 4934 2840 
Q 4756 3084 4391 3084 
Q 3944 3084 3684 2787 
Q 3425 2491 3425 1978 
L 3425 0 
L 2847 0 
L 2847 2094 
Q 2847 2600 2669 2842 
Q 2491 3084 2119 3084 
Q 1678 3084 1418 2786 
Q 1159 2488 1159 1978 
L 1159 0 
L 581 0 
L 581 3500 
L 1159 3500 
L 1159 2956 
Q 1356 3278 1631 3431 
Q 1906 3584 2284 3584 
Q 2666 3584 2933 3390 
Q 3200 3197 3328 2828 
z
" transform="scale(0.015625)"/>
       <path id="DejaVuSans-70" d="M 1159 525 
L 1159 -1331 
L 581 -1331 
L 581 3500 
L 1159 3500 
L 1159 2969 
Q 1341 3281 1617 3432 
Q 1894 3584 2278 3584 
Q 2916 3584 3314 3078 
Q 3713 2572 3713 1747 
Q 3713 922 3314 415 
Q 2916 -91 2278 -91 
Q 1894 -91 1617 61 
Q 1341 213 1159 525 
z
M 3116 1747 
Q 3116 2381 2855 2742 
Q 2594 3103 2138 3103 
Q 1681 3103 1420 2742 
Q 1159 2381 1159 1747 
Q 1159 1113 1420 752 
Q 1681 391 2138 391 
Q 2594 391 2855 752 
Q 3116 1113 3116 1747 
z
" transform="scale(0.015625)"/>
       <path id="DejaVuSans-6f" d="M 1959 3097 
Q 1497 3097 1228 2736 
Q 959 2375 959 1747 
Q 959 1119 1226 758 
Q 1494 397 1959 397 
Q 2419 397 2687 759 
Q 2956 1122 2956 1747 
Q 2956 2369 2687 2733 
Q 2419 3097 1959 3097 
z
M 1959 3584 
Q 2709 3584 3137 3096 
Q 3566 2609 3566 1747 
Q 3566 888 3137 398 
Q 2709 -91 1959 -91 
Q 1206 -91 779 398 
Q 353 888 353 1747 
Q 353 2609 779 3096 
Q 1206 3584 1959 3584 
z
" transform="scale(0.015625)"/>
       <path id="DejaVuSans-20" transform="scale(0.015625)"/>
       <path id="DejaVuSans-28" d="M 1984 4856 
Q 1566 4138 1362 3434 
Q 1159 2731 1159 2009 
Q 1159 1288 1364 580 
Q 1569 -128 1984 -844 
L 1484 -844 
Q 1016 -109 783 600 
Q 550 1309 550 2009 
Q 550 2706 781 3412 
Q 1013 4119 1484 4856 
L 1984 4856 
z
" transform="scale(0.015625)"/>
       <path id="DejaVuSans-73" d="M 2834 3397 
L 2834 2853 
Q 2591 2978 2328 3040 
Q 2066 3103 1784 3103 
Q 1356 3103 1142 2972 
Q 928 2841 928 2578 
Q 928 2378 1081 2264 
Q 1234 2150 1697 2047 
L 1894 2003 
Q 2506 1872 2764 1633 
Q 3022 1394 3022 966 
Q 3022 478 2636 193 
Q 2250 -91 1575 -91 
Q 1294 -91 989 -36 
Q 684 19 347 128 
L 347 722 
Q 666 556 975 473 
Q 1284 391 1588 391 
Q 1994 391 2212 530 
Q 2431 669 2431 922 
Q 2431 1156 2273 1281 
Q 2116 1406 1581 1522 
L 1381 1569 
Q 847 1681 609 1914 
Q 372 2147 372 2553 
Q 372 3047 722 3315 
Q 1072 3584 1716 3584 
Q 2034 3584 2315 3537 
Q 2597 3491 2834 3397 
z
" transform="scale(0.015625)"/>
       <path id="DejaVuSans-29" d="M 513 4856 
L 1013 4856 
Q 1481 4119 1714 3412 
Q 1947 2706 1947 2009 
Q 1947 1309 1714 600 
Q 1481 -109 1013 -844 
L 513 -844 
Q 928 -128 1133 580 
Q 1338 1288 1338 2009 
Q 1338 2731 1133 3434 
Q 928 4138 513 4856 
z
" transform="scale(0.015625)"/>
      </defs>
      <use xlink:href="#DejaVuSans-54"/>
      <use xlink:href="#DejaVuSans-69" x="57.958984"/>
      <use xlink:href="#DejaVuSans-65" x="85.742188"/>
      <use xlink:href="#DejaVuSans-6d" x="147.265625"/>
      <use xlink:href="#DejaVuSans-70" x="244.677734"/>
      <use xlink:href="#DejaVuSans-6f" x="308.154297"/>
      <use xlink:href="#DejaVuSans-20" x="369.335938"/>
      <use xlink:href="#DejaVuSans-28" x="401.123047"/>
      <use xlink:href="#DejaVuSans-73" x="440.136719"/>
      <use xlink:href="#DejaVuSans-29" x="492.236328"/>
     </g>
    </g>
   </g>
   <g id="matplotlib.axis_2">
    <g id="ytick_1">
     <g id="line2d_4">
      <defs>
       <path id="ma3de6f2f7a" d="M 0 0 
L -3.5 0 
" style="stroke: #000000; stroke-width: 0.8"/>
      </defs>
      <g>
       <use xlink:href="#ma3de6f2f7a" x="54" y="242.122584" style="stroke: #000000; stroke-width: 0.8"/>
      </g>
     </g>
     <g id="text_5">
      <!-- −1.0 -->
      <g transform="translate(22.717187 245.921803)scale(0.1 -0.1)">
       <defs>
        <path id="DejaVuSans-2212" d="M 678 2272 
L 4684 2272 
L 4684 1741 
L 678 1741 
L 678 2272 
z
" transform="scale(0.015625)"/>
        <path id="DejaVuSans-2e" d="M 684 794 
L 1344 794 
L 1344 0 
L 684 0 
L 684 794 
z
" transform="scale(0.015625)"/>
       </defs>
       <use xlink:href="#DejaVuSans-2212"/>
       <use xlink:href="#DejaVuSans-31" x="83.789062"/>
       <use xlink:href="#DejaVuSans-2e" x="147.412109"/>
       <use xlink:href="#DejaVuSans-30" x="179.199219"/>
      </g>
     </g>
    </g>
    <g id="ytick_2">
     <g id="line2d_5">
      <g>
       <use xlink:href="#ma3de6f2f7a" x="54" y="217.412716" style="stroke: #000000; stroke-width: 0.8"/>
      </g>
     </g>
     <g id="text_6">
      <!-- −0.5 -->
      <g transform="translate(22.717187 221.211934)scale(0.1 -0.1)">
       <defs>
        <path id="DejaVuSans-35" d="M 691 4666 
L 3169 4666 
L 3169 4134 
L 1269 4134 
L 1269 2991 
Q 1406 3038 1543 3061 
Q 1681 3084 1819 3084 
Q 2600 3084 3056 2656 
Q 3513 2228 3513 1497 
Q 3513 744 3044 326 
Q 2575 -91 1722 -91 
Q 1428 -91 1123 -41 
Q 819 9 494 109 
L 494 744 
Q 775 591 1075 516 
Q 1375 441 1709 441 
Q 2250 441 2565 725 
Q 2881 1009 2881 1497 
Q 2881 1984 2565 2268 
Q 2250 2553 1709 2553 
Q 1456 2553 1204 2497 
Q 953 2441 691 2322 
L 691 4666 
z
" transform="scale(0.015625)"/>
       </defs>
       <use xlink:href="#DejaVuSans-2212"/>
       <use xlink:href="#DejaVuSans-30" x="83.789062"/>
       <use xlink:href="#DejaVuSans-2e" x="147.412109"/>
       <use xlink:href="#DejaVuSans-35" x="179.199219"/>
      </g>
     </g>
    </g>
    <g id="ytick_3">
     <g id="line2d_6">
      <g>
       <use xlink:href="#ma3de6f2f7a" x="54" y="192.702847" style="stroke: #000000; stroke-width: 0.8"/>
      </g>
     </g>
     <g id="text_7">
      <!-- 0.0 -->
      <g transform="translate(31.096875 196.502066)scale(0.1 -0.1)">
       <use xlink:href="#DejaVuSans-30"/>
       <use xlink:href="#DejaVuSans-2e" x="63.623047"/>
       <use xlink:href="#DejaVuSans-30" x="95.410156"/>
      </g>
     </g>
    </g>
    <g id="ytick_4">
     <g id="line2d_7">
      <g>
       <use xlink:href="#ma3de6f2f7a" x="54" y="167.992979" style="stroke: #000000; stroke-width: 0.8"/>
      </g>
     </g>
     <g id="text_8">
      <!-- 0.5 -->
      <g transform="translate(31.096875 171.792198)scale(0.1 -0.1)">
       <use xlink:href="#DejaVuSans-30"/>
       <use xlink:href="#DejaVuSans-2e" x="63.623047"/>
       <use xlink:href="#DejaVuSans-35" x="95.410156"/>
      </g>
     </g>
    </g>
    <g id="ytick_5">
     <g id="line2d_8">
      <g>
       <use xlink:href="#ma3de6f2f7a" x="54" y="143.28311" style="stroke: #000000; stroke-width: 0.8"/>
      </g>
     </g>
     <g id="text_9">
      <!-- 1.0 -->
      <g transform="translate(31.096875 147.082329)scale(0.1 -0.1)">
       <use xlink:href="#DejaVuSans-31"/>
       <use xlink:href="#DejaVuSans-2e" x="63.623047"/>
       <use xlink:href="#DejaVuSans-30" x="95.410156"/>
      </g>
     </g>
    </g>
    <g id="ytick_6">
     <g id="line2d_9">
      <g>
       <use xlink:href="#ma3de6f2f7a" x="54" y="118.573242" style="stroke: #000000; stroke-width: 0.8"/>
      </g>
     </g>
     <g id="text_10">
      <!-- 1.5 -->
      <g transform="translate(31.096875 122.372461)scale(0.1 -0.1)">
       <use xlink:href="#DejaVuSans-31"/>
       <use xlink:href="#DejaVuSans-2e" x="63.623047"/>
       <use xlink:href="#DejaVuSans-35" x="95.410156"/>
      </g>
     </g>
    </g>
    <g id="ytick_7">
     <g id="line2d_10">
      <g>
       <use xlink:href="#ma3de6f2f7a" x="54" y="93.863373" style="stroke: #000000; stroke-width: 0.8"/>
      </g>
     </g>
     <g id="text_11">
      <!-- 2.0 -->
      <g transform="translate(31.096875 97.662592)scale(0.1 -0.1)">
       <use xlink:href="#DejaVuSans-32"/>
       <use xlink:href="#DejaVuSans-2e" x="63.623047"/>
       <use xlink:href="#DejaVuSans-30" x="95.410156"/>
      </g>
     </g>
    </g>
    <g id="ytick_8">
     <g id="line2d_11">
      <g>
       <use xlink:href="#ma3de6f2f7a" x="54" y="69.153505" style="stroke: #000000; stroke-width: 0.8"/>
      </g>
     </g>
     <g id="text_12">
      <!-- 2.5 -->
      <g transform="translate(31.096875 72.952724)scale(0.1 -0.1)">
       <use xlink:href="#DejaVuSans-32"/>
       <use xlink:href="#DejaVuSans-2e" x="63.623047"/>
       <use xlink:href="#DejaVuSans-35" x="95.410156"/>
      </g>
     </g>
    </g>
    <g id="ytick_9">
     <g id="line2d_12">
      <g>
       <use xlink:href="#ma3de6f2f7a" x="54" y="44.443636" style="stroke: #000000; stroke-width: 0.8"/>
      </g>
     </g>
     <g id="text_13">
      <!-- 3.0 -->
      <g transform="translate(31.096875 48.242855)scale(0.1 -0.1)">
       <defs>
        <path id="DejaVuSans-33" d="M 2597 2516 
Q 3050 2419 3304 2112 
Q 3559 1806 3559 1356 
Q 3559 666 3084 287 
Q 2609 -91 1734 -91 
Q 1441 -91 1130 -33 
Q 819 25 488 141 
L 488 750 
Q 750 597 1062 519 
Q 1375 441 1716 441 
Q 2309 441 2620 675 
Q 2931 909 2931 1356 
Q 2931 1769 2642 2001 
Q 2353 2234 1838 2234 
L 1294 2234 
L 1294 2753 
L 1863 2753 
Q 2328 2753 2575 2939 
Q 2822 3125 2822 3475 
Q 2822 3834 2567 4026 
Q 2313 4219 1838 4219 
Q 1578 4219 1281 4162 
Q 984 4106 628 3988 
L 628 4550 
Q 988 4650 1302 4700 
Q 1616 4750 1894 4750 
Q 2613 4750 3031 4423 
Q 3450 4097 3450 3541 
Q 3450 3153 3228 2886 
Q 3006 2619 2597 2516 
z
" transform="scale(0.015625)"/>
       </defs>
       <use xlink:href="#DejaVuSans-33"/>
       <use xlink:href="#DejaVuSans-2e" x="63.623047"/>
       <use xlink:href="#DejaVuSans-30" x="95.410156"/>
      </g>
     </g>
    </g>
    <g id="text_14">
     <!-- Amplitud -->
     <g transform="translate(16.6375 165.826094)rotate(-90)scale(0.1 -0.1)">
      <defs>
       <path id="DejaVuSans-41" d="M 2188 4044 
L 1331 1722 
L 3047 1722 
L 2188 4044 
z
M 1831 4666 
L 2547 4666 
L 4325 0 
L 3669 0 
L 3244 1197 
L 1141 1197 
L 716 0 
L 50 0 
L 1831 4666 
z
" transform="scale(0.015625)"/>
       <path id="DejaVuSans-6c" d="M 603 4863 
L 1178 4863 
L 1178 0 
L 603 0 
L 603 4863 
z
" transform="scale(0.015625)"/>
       <path id="DejaVuSans-74" d="M 1172 4494 
L 1172 3500 
L 2356 3500 
L 2356 3053 
L 1172 3053 
L 1172 1153 
Q 1172 725 1289 603 
Q 1406 481 1766 481 
L 2356 481 
L 2356 0 
L 1766 0 
Q 1100 0 847 248 
Q 594 497 594 1153 
L 594 3053 
L 172 3053 
L 172 3500 
L 594 3500 
L 594 4494 
L 1172 4494 
z
" transform="scale(0.015625)"/>
       <path id="DejaVuSans-75" d="M 544 1381 
L 544 3500 
L 1119 3500 
L 1119 1403 
Q 1119 906 1312 657 
Q 1506 409 1894 409 
Q 2359 409 2629 706 
Q 2900 1003 2900 1516 
L 2900 3500 
L 3475 3500 
L 3475 0 
L 2900 0 
L 2900 538 
Q 2691 219 2414 64 
Q 2138 -91 1772 -91 
Q 1169 -91 856 284 
Q 544 659 544 1381 
z
M 1991 3584 
L 1991 3584 
z
" transform="scale(0.015625)"/>
       <path id="DejaVuSans-64" d="M 2906 2969 
L 2906 4863 
L 3481 4863 
L 3481 0 
L 2906 0 
L 2906 525 
Q 2725 213 2448 61 
Q 2172 -91 1784 -91 
Q 1150 -91 751 415 
Q 353 922 353 1747 
Q 353 2572 751 3078 
Q 1150 3584 1784 3584 
Q 2172 3584 2448 3432 
Q 2725 3281 2906 2969 
z
M 947 1747 
Q 947 1113 1208 752 
Q 1469 391 1925 391 
Q 2381 391 2643 752 
Q 2906 1113 2906 1747 
Q 2906 2381 2643 2742 
Q 2381 3103 1925 3103 
Q 1469 3103 1208 2742 
Q 947 2381 947 1747 
z
" transform="scale(0.015625)"/>
      </defs>
      <use xlink:href="#DejaVuSans-41"/>
      <use xlink:href="#DejaVuSans-6d" x="68.408203"/>
      <use xlink:href="#DejaVuSans-70" x="165.820312"/>
      <use xlink:href="#DejaVuSans-6c" x="229.296875"/>
      <use xlink:href="#DejaVuSans-69" x="257.080078"/>
      <use xlink:href="#DejaVuSans-74" x="284.863281"/>
      <use xlink:href="#DejaVuSans-75" x="324.072266"/>
      <use xlink:href="#DejaVuSans-64" x="387.451172"/>
     </g>
    </g>
   </g>
   <g id="line2d_13">
    <path d="M 69.218182 192.702847 
L 72.292562 189.568454 
L 75.366942 186.446681 
L 78.441322 183.350101 
L 81.515702 180.29118 
L 84.590083 177.282236 
L 87.664463 174.335386 
L 90.738843 171.462496 
L 93.813223 168.675132 
L 96.887603 165.98452 
L 99.961983 163.401493 
L 103.036364 160.936453 
L 106.110744 158.599324 
L 109.185124 156.399518 
L 112.259504 154.345893 
L 115.333884 152.446718 
L 118.408264 150.70964 
L 121.482645 149.141654 
L 124.557025 147.749073 
L 127.631405 146.537506 
L 130.705785 145.51183 
L 133.780165 144.676175 
L 136.854545 144.033907 
L 139.928926 143.587612 
L 143.003306 143.339086 
L 146.077686 143.289331 
L 149.152066 143.438546 
L 152.226446 143.786132 
L 155.300826 144.330688 
L 158.375207 145.070021 
L 161.449587 146.001155 
L 164.523967 147.120341 
L 167.598347 148.423071 
L 170.672727 149.9041 
L 173.747107 151.557464 
L 176.821488 153.376506 
L 179.895868 155.353902 
L 182.970248 157.481689 
L 186.044628 159.751299 
L 189.119008 162.153593 
L 192.193388 164.678898 
L 195.267769 167.317046 
L 198.342149 170.057413 
L 201.416529 172.888966 
L 204.490909 175.800302 
L 207.565289 178.779698 
L 210.639669 181.815159 
L 213.71405 184.89446 
L 216.78843 188.005203 
L 219.86281 191.134861 
L 222.93719 194.270833 
L 226.01157 197.400492 
L 229.08595 200.511235 
L 232.160331 203.590536 
L 235.234711 206.625996 
L 238.309091 209.605393 
L 241.383471 212.516729 
L 244.457851 215.348281 
L 247.532231 218.088649 
L 250.606612 220.726797 
L 253.680992 223.252102 
L 256.755372 225.654396 
L 259.829752 227.924006 
L 262.904132 230.051792 
L 265.978512 232.029188 
L 269.052893 233.84823 
L 272.127273 235.501595 
L 275.201653 236.982624 
L 278.276033 238.285354 
L 281.350413 239.404539 
L 284.424793 240.335673 
L 287.499174 241.075007 
L 290.573554 241.619563 
L 293.647934 241.967148 
L 296.722314 242.116364 
L 299.796694 242.066608 
L 302.871074 241.818083 
L 305.945455 241.371787 
L 309.019835 240.729519 
L 312.094215 239.893865 
L 315.168595 238.868189 
L 318.242975 237.656621 
L 321.317355 236.264041 
L 324.391736 234.696054 
L 327.466116 232.958977 
L 330.540496 231.059801 
L 333.614876 229.006176 
L 336.689256 226.80637 
L 339.763636 224.469242 
L 342.838017 222.004201 
L 345.912397 219.421174 
L 348.986777 216.730562 
L 352.061157 213.943199 
L 355.135537 211.070308 
L 358.209917 208.123458 
L 361.284298 205.114515 
L 364.358678 202.055594 
L 367.433058 198.959013 
L 370.507438 195.837241 
L 373.581818 192.702847 
" clip-path="url(#p06705dbb65)" style="fill: none; stroke: #0000ff; stroke-linecap: square"/>
   </g>
   <g id="line2d_14">
    <path d="M 69.218182 192.702847 
L 72.292562 183.350101 
L 75.366942 174.335386 
L 78.441322 165.98452 
L 81.515702 158.599324 
L 84.590083 152.446718 
L 87.664463 147.749073 
L 90.738843 144.676175 
L 93.813223 143.339086 
L 96.887603 143.786132 
L 99.961983 146.001155 
L 103.036364 149.9041 
L 106.110744 155.353902 
L 109.185124 162.153593 
L 112.259504 170.057413 
L 115.333884 178.779698 
L 118.408264 188.005203 
L 121.482645 197.400492 
L 124.557025 206.625996 
L 127.631405 215.348281 
L 130.705785 223.252102 
L 133.780165 230.051792 
L 136.854545 235.501595 
L 139.928926 239.404539 
L 143.003306 241.619563 
L 146.077686 242.066608 
L 149.152066 240.729519 
L 152.226446 237.656621 
L 155.300826 232.958977 
L 158.375207 226.80637 
L 161.449587 219.421174 
L 164.523967 211.070308 
L 167.598347 202.055594 
L 170.672727 192.702847 
L 173.747107 183.350101 
L 176.821488 174.335386 
L 179.895868 165.98452 
L 182.970248 158.599324 
L 186.044628 152.446718 
L 189.119008 147.749073 
L 192.193388 144.676175 
L 195.267769 143.339086 
L 198.342149 143.786132 
L 201.416529 146.001155 
L 204.490909 149.9041 
L 207.565289 155.353902 
L 210.639669 162.153593 
L 213.71405 170.057413 
L 216.78843 178.779698 
L 219.86281 188.005203 
L 222.93719 197.400492 
L 226.01157 206.625996 
L 229.08595 215.348281 
L 232.160331 223.252102 
L 235.234711 230.051792 
L 238.309091 235.501595 
L 241.383471 239.404539 
L 244.457851 241.619563 
L 247.532231 242.066608 
L 250.606612 240.729519 
L 253.680992 237.656621 
L 256.755372 232.958977 
L 259.829752 226.80637 
L 262.904132 219.421174 
L 265.978512 211.070308 
L 269.052893 202.055594 
L 272.127273 192.702847 
L 275.201653 183.350101 
L 278.276033 174.335386 
L 281.350413 165.98452 
L 284.424793 158.599324 
L 287.499174 152.446718 
L 290.573554 147.749073 
L 293.647934 144.676175 
L 296.722314 143.339086 
L 299.796694 143.786132 
L 302.871074 146.001155 
L 305.945455 149.9041 
L 309.019835 155.353902 
L 312.094215 162.153593 
L 315.168595 170.057413 
L 318.242975 178.779698 
L 321.317355 188.005203 
L 324.391736 197.400492 
L 327.466116 206.625996 
L 330.540496 215.348281 
L 333.614876 223.252102 
L 336.689256 230.051792 
L 339.763636 235.501595 
L 342.838017 239.404539 
L 345.912397 241.619563 
L 348.986777 242.066608 
L 352.061157 240.729519 
L 355.135537 237.656621 
L 358.209917 232.958977 
L 361.284298 226.80637 
L 364.358678 219.421174 
L 367.433058 211.070308 
L 370.507438 202.055594 
L 373.581818 192.702847 
" clip-path="url(#p06705dbb65)" style="fill: none; stroke-dasharray: 3.7,1.6; stroke-dashoffset: 0; stroke: #008000"/>
   </g>
   <g id="line2d_15">
    <defs>
     <path id="m4280885a6c" d="M 0 1 
C 0.265203 1 0.51958 0.894634 0.707107 0.707107 
C 0.894634 0.51958 1 0.265203 1 0 
C 1 -0.265203 0.894634 -0.51958 0.707107 -0.707107 
C 0.51958 -0.894634 0.265203 -1 0 -1 
C -0.265203 -1 -0.51958 -0.894634 -0.707107 -0.707107 
C -0.894634 -0.51958 -1 -0.265203 -1 0 
C -1 0.265203 -0.894634 0.51958 -0.707107 0.707107 
C -0.51958 0.894634 -0.265203 1 0 1 
z
" style="stroke: #000000"/>
    </defs>
    <g clip-path="url(#p06705dbb65)">
     <use xlink:href="#m4280885a6c" x="69.218182" y="44.443636" style="stroke: #000000"/>
     <use xlink:href="#m4280885a6c" x="72.292562" y="46.229794" style="stroke: #000000"/>
     <use xlink:href="#m4280885a6c" x="75.366942" y="51.523712" style="stroke: #000000"/>
     <use xlink:href="#m4280885a6c" x="78.441322" y="60.134054" style="stroke: #000000"/>
     <use xlink:href="#m4280885a6c" x="81.515702" y="71.749619" style="stroke: #000000"/>
     <use xlink:href="#m4280885a6c" x="84.590083" y="85.950591" style="stroke: #000000"/>
     <use xlink:href="#m4280885a6c" x="87.664463" y="102.223709" style="stroke: #000000"/>
     <use xlink:href="#m4280885a6c" x="90.738843" y="119.980821" style="stroke: #000000"/>
     <use xlink:href="#m4280885a6c" x="93.813223" y="138.580139" style="stroke: #000000"/>
     <use xlink:href="#m4280885a6c" x="96.887603" y="157.349434" style="stroke: #000000"/>
     <use xlink:href="#m4280885a6c" x="99.961983" y="175.610336" style="stroke: #000000"/>
     <use xlink:href="#m4280885a6c" x="103.036364" y="192.702847" style="stroke: #000000"/>
     <use xlink:href="#m4280885a6c" x="106.110744" y="208.009201" style="stroke: #000000"/>
     <use xlink:href="#m4280885a6c" x="109.185124" y="220.976185" style="stroke: #000000"/>
     <use xlink:href="#m4280885a6c" x="112.259504" y="231.135138" style="stroke: #000000"/>
     <use xlink:href="#m4280885a6c" x="115.333884" y="238.118891" style="stroke: #000000"/>
     <use xlink:href="#m4280885a6c" x="118.408264" y="241.675031" style="stroke: #000000"/>
     <use xlink:href="#m4280885a6c" x="121.482645" y="241.675031" style="stroke: #000000"/>
     <use xlink:href="#m4280885a6c" x="124.557025" y="238.118891" style="stroke: #000000"/>
     <use xlink:href="#m4280885a6c" x="127.631405" y="231.135138" style="stroke: #000000"/>
     <use xlink:href="#m4280885a6c" x="130.705785" y="220.976185" style="stroke: #000000"/>
     <use xlink:href="#m4280885a6c" x="133.780165" y="208.009201" style="stroke: #000000"/>
     <use xlink:href="#m4280885a6c" x="136.854545" y="192.702847" style="stroke: #000000"/>
     <use xlink:href="#m4280885a6c" x="139.928926" y="175.610336" style="stroke: #000000"/>
     <use xlink:href="#m4280885a6c" x="143.003306" y="157.349434" style="stroke: #000000"/>
     <use xlink:href="#m4280885a6c" x="146.077686" y="138.580139" style="stroke: #000000"/>
     <use xlink:href="#m4280885a6c" x="149.152066" y="119.980821" style="stroke: #000000"/>
     <use xlink:href="#m4280885a6c" x="152.226446" y="102.223709" style="stroke: #000000"/>
     <use xlink:href="#m4280885a6c" x="155.300826" y="85.950591" style="stroke: #000000"/>
     <use xlink:href="#m4280885a6c" x="158.375207" y="71.749619" style="stroke: #000000"/>
     <use xlink:href="#m4280885a6c" x="161.449587" y="60.134054" style="stroke: #000000"/>
     <use xlink:href="#m4280885a6c" x="164.523967" y="51.523712" style="stroke: #000000"/>
     <use xlink:href="#m4280885a6c" x="167.598347" y="46.229794" style="stroke: #000000"/>
     <use xlink:href="#m4280885a6c" x="170.672727" y="44.443636" style="stroke: #000000"/>
     <use xlink:href="#m4280885a6c" x="173.747107" y="46.229794" style="stroke: #000000"/>
     <use xlink:href="#m4280885a6c" x="176.821488" y="51.523712" style="stroke: #000000"/>
     <use xlink:href="#m4280885a6c" x="179.895868" y="60.134054" style="stroke: #000000"/>
     <use xlink:href="#m4280885a6c" x="182.970248" y="71.749619" style="stroke: #000000"/>
     <use xlink:href="#m4280885a6c" x="186.044628" y="85.950591" style="stroke: #000000"/>
     <use xlink:href="#m4280885a6c" x="189.119008" y="102.223709" style="stroke: #000000"/>
     <use xlink:href="#m4280885a6c" x="192.193388" y="119.980821" style="stroke: #000000"/>
     <use xlink:href="#m4280885a6c" x="195.267769" y="138.580139" style="stroke: #000000"/>
     <use xlink:href="#m4280885a6c" x="198.342149" y="157.349434" style="stroke: #000000"/>
     <use xlink:href="#m4280885a6c" x="201.416529" y="175.610336" style="stroke: #000000"/>
     <use xlink:href="#m4280885a6c" x="204.490909" y="192.702847" style="stroke: #000000"/>
     <use xlink:href="#m4280885a6c" x="207.565289" y="208.009201" style="stroke: #000000"/>
     <use xlink:href="#m4280885a6c" x="210.639669" y="220.976185" style="stroke: #000000"/>
     <use xlink:href="#m4280885a6c" x="213.71405" y="231.135138" style="stroke: #000000"/>
     <use xlink:href="#m4280885a6c" x="216.78843" y="238.118891" style="stroke: #000000"/>
     <use xlink:href="#m4280885a6c" x="219.86281" y="241.675031" style="stroke: #000000"/>
     <use xlink:href="#m4280885a6c" x="222.93719" y="241.675031" style="stroke: #000000"/>
     <use xlink:href="#m4280885a6c" x="226.01157" y="238.118891" style="stroke: #000000"/>
     <use xlink:href="#m4280885a6c" x="229.08595" y="231.135138" style="stroke: #000000"/>
     <use xlink:href="#m4280885a6c" x="232.160331" y="220.976185" style="stroke: #000000"/>
     <use xlink:href="#m4280885a6c" x="235.234711" y="208.009201" style="stroke: #000000"/>
     <use xlink:href="#m4280885a6c" x="238.309091" y="192.702847" style="stroke: #000000"/>
     <use xlink:href="#m4280885a6c" x="241.383471" y="175.610336" style="stroke: #000000"/>
     <use xlink:href="#m4280885a6c" x="244.457851" y="157.349434" style="stroke: #000000"/>
     <use xlink:href="#m4280885a6c" x="247.532231" y="138.580139" style="stroke: #000000"/>
     <use xlink:href="#m4280885a6c" x="250.606612" y="119.980821" style="stroke: #000000"/>
     <use xlink:href="#m4280885a6c" x="253.680992" y="102.223709" style="stroke: #000000"/>
     <use xlink:href="#m4280885a6c" x="256.755372" y="85.950591" style="stroke: #000000"/>
     <use xlink:href="#m4280885a6c" x="259.829752" y="71.749619" style="stroke: #000000"/>
     <use xlink:href="#m4280885a6c" x="262.904132" y="60.134054" style="stroke: #000000"/>
     <use xlink:href="#m4280885a6c" x="265.978512" y="51.523712" style="stroke: #000000"/>
     <use xlink:href="#m4280885a6c" x="269.052893" y="46.229794" style="stroke: #000000"/>
     <use xlink:href="#m4280885a6c" x="272.127273" y="44.443636" style="stroke: #000000"/>
     <use xlink:href="#m4280885a6c" x="275.201653" y="46.229794" style="stroke: #000000"/>
     <use xlink:href="#m4280885a6c" x="278.276033" y="51.523712" style="stroke: #000000"/>
     <use xlink:href="#m4280885a6c" x="281.350413" y="60.134054" style="stroke: #000000"/>
     <use xlink:href="#m4280885a6c" x="284.424793" y="71.749619" style="stroke: #000000"/>
     <use xlink:href="#m4280885a6c" x="287.499174" y="85.950591" style="stroke: #000000"/>
     <use xlink:href="#m4280885a6c" x="290.573554" y="102.223709" style="stroke: #000000"/>
     <use xlink:href="#m4280885a6c" x="293.647934" y="119.980821" style="stroke: #000000"/>
     <use xlink:href="#m4280885a6c" x="296.722314" y="138.580139" style="stroke: #000000"/>
     <use xlink:href="#m4280885a6c" x="299.796694" y="157.349434" style="stroke: #000000"/>
     <use xlink:href="#m4280885a6c" x="302.871074" y="175.610336" style="stroke: #000000"/>
     <use xlink:href="#m4280885a6c" x="305.945455" y="192.702847" style="stroke: #000000"/>
     <use xlink:href="#m4280885a6c" x="309.019835" y="208.009201" style="stroke: #000000"/>
     <use xlink:href="#m4280885a6c" x="312.094215" y="220.976185" style="stroke: #000000"/>
     <use xlink:href="#m4280885a6c" x="315.168595" y="231.135138" style="stroke: #000000"/>
     <use xlink:href="#m4280885a6c" x="318.242975" y="238.118891" style="stroke: #000000"/>
     <use xlink:href="#m4280885a6c" x="321.317355" y="241.675031" style="stroke: #000000"/>
     <use xlink:href="#m4280885a6c" x="324.391736" y="241.675031" style="stroke: #000000"/>
     <use xlink:href="#m4280885a6c" x="327.466116" y="238.118891" style="stroke: #000000"/>
     <use xlink:href="#m4280885a6c" x="330.540496" y="231.135138" style="stroke: #000000"/>
     <use xlink:href="#m4280885a6c" x="333.614876" y="220.976185" style="stroke: #000000"/>
     <use xlink:href="#m4280885a6c" x="336.689256" y="208.009201" style="stroke: #000000"/>
     <use xlink:href="#m4280885a6c" x="339.763636" y="192.702847" style="stroke: #000000"/>
     <use xlink:href="#m4280885a6c" x="342.838017" y="175.610336" style="stroke: #000000"/>
     <use xlink:href="#m4280885a6c" x="345.912397" y="157.349434" style="stroke: #000000"/>
     <use xlink:href="#m4280885a6c" x="348.986777" y="138.580139" style="stroke: #000000"/>
     <use xlink:href="#m4280885a6c" x="352.061157" y="119.980821" style="stroke: #000000"/>
     <use xlink:href="#m4280885a6c" x="355.135537" y="102.223709" style="stroke: #000000"/>
     <use xlink:href="#m4280885a6c" x="358.209917" y="85.950591" style="stroke: #000000"/>
     <use xlink:href="#m4280885a6c" x="361.284298" y="71.749619" style="stroke: #000000"/>
     <use xlink:href="#m4280885a6c" x="364.358678" y="60.134054" style="stroke: #000000"/>
     <use xlink:href="#m4280885a6c" x="367.433058" y="51.523712" style="stroke: #000000"/>
     <use xlink:href="#m4280885a6c" x="370.507438" y="46.229794" style="stroke: #000000"/>
     <use xlink:href="#m4280885a6c" x="373.581818" y="44.443636" style="stroke: #000000"/>
    </g>
   </g>
   <g id="line2d_16">
    <path d="M 54 192.702847 
L 388.8 192.702847 
" clip-path="url(#p06705dbb65)" style="fill: none; stroke-dasharray: 0.5,0.825; stroke-dashoffset: 0; stroke: #000000; stroke-width: 0.5"/>
   </g>
   <g id="line2d_17">
    <path d="M 69.218182 252 
L 69.218182 34.56 
" clip-path="url(#p06705dbb65)" style="fill: none; stroke-dasharray: 0.5,0.825; stroke-dashoffset: 0; stroke: #000000; stroke-width: 0.5"/>
   </g>
   <g id="patch_3">
    <path d="M 54 252 
L 54 34.56 
" style="fill: none; stroke: #000000; stroke-width: 0.8; stroke-linejoin: miter; stroke-linecap: square"/>
   </g>
   <g id="patch_4">
    <path d="M 388.8 252 
L 388.8 34.56 
" style="fill: none; stroke: #000000; stroke-width: 0.8; stroke-linejoin: miter; stroke-linecap: square"/>
   </g>
   <g id="patch_5">
    <path d="M 54 252 
L 388.8 252 
" style="fill: none; stroke: #000000; stroke-width: 0.8; stroke-linejoin: miter; stroke-linecap: square"/>
   </g>
   <g id="patch_6">
    <path d="M 54 34.56 
L 388.8 34.56 
" style="fill: none; stroke: #000000; stroke-width: 0.8; stroke-linejoin: miter; stroke-linecap: square"/>
   </g>
   <g id="text_15">
    <!-- Funciones sinusoidales -->
    <g transform="translate(152.678438 28.56)scale(0.12 -0.12)">
     <defs>
      <path id="DejaVuSans-46" d="M 628 4666 
L 3309 4666 
L 3309 4134 
L 1259 4134 
L 1259 2759 
L 3109 2759 
L 3109 2228 
L 1259 2228 
L 1259 0 
L 628 0 
L 628 4666 
z
" transform="scale(0.015625)"/>
      <path id="DejaVuSans-6e" d="M 3513 2113 
L 3513 0 
L 2938 0 
L 2938 2094 
Q 2938 2591 2744 2837 
Q 2550 3084 2163 3084 
Q 1697 3084 1428 2787 
Q 1159 2491 1159 1978 
L 1159 0 
L 581 0 
L 581 3500 
L 1159 3500 
L 1159 2956 
Q 1366 3272 1645 3428 
Q 1925 3584 2291 3584 
Q 2894 3584 3203 3211 
Q 3513 2838 3513 2113 
z
" transform="scale(0.015625)"/>
      <path id="DejaVuSans-63" d="M 3122 3366 
L 3122 2828 
Q 2878 2963 2633 3030 
Q 2388 3097 2138 3097 
Q 1578 3097 1268 2742 
Q 959 2388 959 1747 
Q 959 1106 1268 751 
Q 1578 397 2138 397 
Q 2388 397 2633 464 
Q 2878 531 3122 666 
L 3122 134 
Q 2881 22 2623 -34 
Q 2366 -91 2075 -91 
Q 1284 -91 818 406 
Q 353 903 353 1747 
Q 353 2603 823 3093 
Q 1294 3584 2113 3584 
Q 2378 3584 2631 3529 
Q 2884 3475 3122 3366 
z
" transform="scale(0.015625)"/>
      <path id="DejaVuSans-61" d="M 2194 1759 
Q 1497 1759 1228 1600 
Q 959 1441 959 1056 
Q 959 750 1161 570 
Q 1363 391 1709 391 
Q 2188 391 2477 730 
Q 2766 1069 2766 1631 
L 2766 1759 
L 2194 1759 
z
M 3341 1997 
L 3341 0 
L 2766 0 
L 2766 531 
Q 2569 213 2275 61 
Q 1981 -91 1556 -91 
Q 1019 -91 701 211 
Q 384 513 384 1019 
Q 384 1609 779 1909 
Q 1175 2209 1959 2209 
L 2766 2209 
L 2766 2266 
Q 2766 2663 2505 2880 
Q 2244 3097 1772 3097 
Q 1472 3097 1187 3025 
Q 903 2953 641 2809 
L 641 3341 
Q 956 3463 1253 3523 
Q 1550 3584 1831 3584 
Q 2591 3584 2966 3190 
Q 3341 2797 3341 1997 
z
" transform="scale(0.015625)"/>
     </defs>
     <use xlink:href="#DejaVuSans-46"/>
     <use xlink:href="#DejaVuSans-75" x="52.019531"/>
     <use xlink:href="#DejaVuSans-6e" x="115.398438"/>
     <use xlink:href="#DejaVuSans-63" x="178.777344"/>
     <use xlink:href="#DejaVuSans-69" x="233.757812"/>
     <use xlink:href="#DejaVuSans-6f" x="261.541016"/>
     <use xlink:href="#DejaVuSans-6e" x="322.722656"/>
     <use xlink:href="#DejaVuSans-65" x="386.101562"/>
     <use xlink:href="#DejaVuSans-73" x="447.625"/>
     <use xlink:href="#DejaVuSans-20" x="499.724609"/>
     <use xlink:href="#DejaVuSans-73" x="531.511719"/>
     <use xlink:href="#DejaVuSans-69" x="583.611328"/>
     <use xlink:href="#DejaVuSans-6e" x="611.394531"/>
     <use xlink:href="#DejaVuSans-75" x="674.773438"/>
     <use xlink:href="#DejaVuSans-73" x="738.152344"/>
     <use xlink:href="#DejaVuSans-6f" x="790.251953"/>
     <use xlink:href="#DejaVuSans-69" x="851.433594"/>
     <use xlink:href="#DejaVuSans-64" x="879.216797"/>
     <use xlink:href="#DejaVuSans-61" x="942.693359"/>
     <use xlink:href="#DejaVuSans-6c" x="1003.972656"/>
     <use xlink:href="#DejaVuSans-65" x="1031.755859"/>
     <use xlink:href="#DejaVuSans-73" x="1093.279297"/>
    </g>
   </g>
  </g>
 </g>
 <defs>
  <clipPath id="p06705dbb65">
   <rect x="54" y="34.56" width="334.8" height="217.44"/>
  </clipPath>
 </defs>
</svg>
